# xmcd CD database file
#
# Track frame offsets:
#	150
#	18037
#	36437
#
# Disc length: 742 seconds
#
# Revision: 0
# Processed by: cddbd v1.5PL3 Copyright (c) Steve Scherf et al.
# Submitted via: CDex 1.51
#
DISCID=1902e403
DTITLE=MariMari - J
DYEAR=1998
DGENRE=Rock
TTITLE0=J
TTITLE1=J (mood stock)
TTITLE2=LIFE PLAYER
EXTD=YEAR: 1998
EXTT0=
EXTT1=
EXTT2=
PLAYORDER=
